HIERARCHY
ROOT Hips
{
     OFFSET 1.88212 96.90440 -13.34250
     CHANNELS 6 Xposition Yposition Zposition Zrotation Xrotation Yrotation
     JOINT Spine
     {
          OFFSET 0.00000 11.89050 0.00000
          CHANNELS 3 Zrotation Xrotation Yrotation
          JOINT Spine1
          {
               OFFSET -0.00000 25.65740 0.12766
               CHANNELS 3 Zrotation Xrotation Yrotation
               JOINT HEad
               {
                    OFFSET 0.00000 8.73416 0.01134
                    CHANNELS 3 Zrotation Xrotation Yrotation
                    End Site
                    {
                         OFFSET -0.29000 12.77420 2.51395
                    }
               }
               JOINT LeftShoulder1
               {
                    OFFSET 8.99000 -0.36225 -0.22000
                    CHANNELS 3 Zrotation Xrotation Yrotation
                    JOINT LeftArm
                    {
                         OFFSET 10.28270 -0.00338 0.32212
                         CHANNELS 3 Zrotation Xrotation Yrotation
                         JOINT LeftForeArm
                         {
                              OFFSET 32.76690 0.09914 -1.42434
                              CHANNELS 3 Zrotation Xrotation Yrotation
                              JOINT LeftHand
                              {
                                   OFFSET 27.56430 0.08536 1.02216
                                   CHANNELS 3 Zrotation Xrotation Yrotation
                                   End Site
                                   {
                                        OFFSET 16.74430 -0.60000 1.50291
                                   }
                              }
                         }
                    }
               }
               JOINT RightShoulder
               {
                    OFFSET -8.99000 -0.36225 -0.22000
                    CHANNELS 3 Zrotation Xrotation Yrotation
                    JOINT RightArm
                    {
                         OFFSET -10.28270 -0.00338 0.32212
                         CHANNELS 3 Zrotation Xrotation Yrotation
                         JOINT RightForeArm
                         {
                              OFFSET -32.89710 0.09914 -1.42434
                              CHANNELS 3 Zrotation Xrotation Yrotation
                              JOINT RightHand
                              {
                                   OFFSET -27.49210 0.08536 1.02216
                                   CHANNELS 3 Zrotation Xrotation Yrotation
                                   End Site
                                   {
                                        OFFSET -16.63120 -0.60000 1.50291
                                   }
                              }
                         }
                    }
               }
          }
     }
     JOINT LeftUpLeg
     {
          OFFSET 8.94580 -8.66707 0.10165
          CHANNELS 3 Zrotation Xrotation Yrotation
          JOINT LeftLeg
          {
               OFFSET 0.00000 -44.42270 1.37270
               CHANNELS 3 Zrotation Xrotation Yrotation
               JOINT LeftFoot
               {
                    OFFSET -0.25355 -42.09240 -1.46059
                    CHANNELS 3 Zrotation Xrotation Yrotation
                    JOINT LeftToes
                    {
                         OFFSET -0.04000 -4.41509 8.49910
                         CHANNELS 3 Zrotation Xrotation Yrotation
                         End Site
                         {
                              OFFSET 0.08000 -0.04745 9.77979
                         }
                    }
               }
          }
     }
     JOINT RightUpLeg
     {
          OFFSET -8.94580 -8.66707 0.10165
          CHANNELS 3 Zrotation Xrotation Yrotation
          JOINT RightLeg
          {
               OFFSET 0.00000 -44.42270 1.37270
               CHANNELS 3 Zrotation Xrotation Yrotation
               JOINT RightFoot
               {
                    OFFSET 0.25355 -42.09240 -1.46059
                    CHANNELS 3 Zrotation Xrotation Yrotation
                    JOINT RightToes
                    {
                         OFFSET 0.04000 -4.41509 8.49910
                         CHANNELS 3 Zrotation Xrotation Yrotation
                         End Site
                         {
                              OFFSET -0.08000 -0.13745 9.77979
                         }
                    }
               }
          }
     }
}
MOTION
Frames: 19
Frame Time: 0.01667
-16.59783 85.87945 -94.95383 2.44611 -8.37636 -14.07661 5.47264 19.32235 9.16077 0.01476 -0.01397 -0.01626 -32.96037 20.68648 29.38218 10.00785 -5.63518 0.72940 17.96811 -78.97273 36.55987 -43.51735 47.86739 -98.41306 4.02342 10.94761 4.65849 32.46803 -2.47464 8.29372 34.75158 -12.16472 58.11047 18.62682 34.87452 104.62793 -5.93977 5.21296 4.26776 19.66775 -20.49017 8.83326 1.40151 27.15322 6.42340 80.12730 0.10949 -0.06784 -107.64195 -7.68802 -8.72450 -26.23624 -5.62515 -6.54428 -24.30392 49.27154 48.28354 14.23679 -0.04485 0.03250 -8.34509 -49.16968 -32.20348 
-18.49986 85.29520 -97.16443 2.81616 -7.19705 -13.10936 4.97734 18.63695 10.09475 0.01155 -0.00991 -0.01598 -35.15832 19.27272 30.27052 9.76049 -5.53307 -0.34396 19.38773 -78.89343 38.70530 -43.03351 47.87189 -99.38407 4.90435 12.41957 -1.74955 31.66127 -2.83050 7.27404 37.29759 -11.07733 59.72784 18.03701 34.85955 104.62720 -5.54328 7.69530 2.09289 21.06134 -22.44252 9.98089 0.41081 25.91690 6.43844 74.61446 0.11367 -0.03564 -100.97840 -5.71752 -9.25311 -25.79148 -0.91478 -2.20268 -14.13715 42.28437 36.72337 14.32745 -0.09813 -0.02998 -5.58191 -42.47698 -33.25108 
-20.37676 84.79532 -99.26268 3.01681 -6.10753 -12.27731 4.73147 17.96259 10.80232 0.00871 -0.00690 -0.01656 -36.98221 17.94724 31.09436 9.38362 -5.10344 -1.38530 21.83949 -79.10717 41.96363 -42.65442 48.00292 -100.06701 4.66157 10.53975 2.68946 30.76648 -2.83586 6.18923 39.50127 -10.39431 61.32624 17.91025 34.98121 104.61749 -5.47114 6.66957 2.16072 22.33812 -24.14618 11.09605 -0.20557 24.67953 5.94660 68.45174 0.11586 0.00058 -93.61610 -4.21044 -9.72664 -24.97396 3.91681 2.70520 -7.01063 34.17996 25.71455 12.38730 -0.08745 0.03847 -17.12840 -51.19096 -28.21176 
-22.19405 84.34566 -101.24387 3.07749 -5.15497 -11.56463 4.68075 17.35180 11.29404 0.00666 -0.00412 -0.01695 -38.46160 16.71187 31.90352 8.92767 -4.38435 -2.31541 25.14951 -79.55685 46.25098 -42.48063 48.35507 -100.68836 5.24013 10.86601 -1.34835 29.95570 -2.51770 5.04754 41.35852 -9.90761 62.94967 18.00146 35.22278 104.48964 -5.23931 8.29994 0.54663 23.43603 -25.61383 12.11910 0.29252 23.75191 2.61265 60.89727 0.05697 0.17125 -85.12531 -3.41181 -8.17370 -24.41058 8.17750 7.19342 -2.52578 25.87907 16.35773 12.48338 -0.09169 -0.02792 -10.02797 -41.80140 -27.53289 
-23.94251 83.95215 -103.10575 3.05072 -4.42553 -10.94486 4.74628 16.86703 11.56860 0.00498 -0.00314 -0.01730 -39.62817 15.59504 32.73835 8.39651 -3.56083 -3.12025 28.79038 -80.10500 50.96689 -42.56046 48.89345 -101.05495 5.17942 9.52929 1.14105 29.35014 -2.02198 4.00419 42.80645 -9.53633 64.34223 18.18487 35.52603 104.35839 -5.40214 7.86100 0.49319 24.25491 -26.83315 12.97596 1.52645 23.06099 -2.90587 52.33578 -0.09465 0.31744 -61.95392 5.10615 -11.80465 -24.08413 11.85168 11.31513 1.47433 19.56271 7.15698 8.92164 -0.16888 0.07896 -9.58851 -43.27021 -22.24383 
-25.58725 83.65706 -104.75952 2.91684 -3.93085 -10.36626 4.95858 16.51831 11.58545 0.00425 -0.00169 -0.01729 -40.54942 14.65239 33.64370 7.89761 -2.67599 -3.83608 32.83086 -80.71524 56.20124 -42.84800 49.59139 -101.27318 5.46810 9.66709 -1.50546 28.76075 -1.42502 3.04446 44.12584 -9.17975 65.52559 18.40034 35.83069 104.15418 -5.47251 8.91133 -0.51609 24.80643 -27.73552 13.59513 2.69508 22.04215 -7.75625 43.48225 -0.14741 0.26734 -62.32618 1.68037 -4.69837 -24.04645 14.57928 15.07373 4.85732 14.40042 -0.91503 9.20290 -0.10814 -0.00605 -8.45150 -40.32343 -18.38303 
-27.10257 83.52402 -106.16850 2.65479 -3.65848 -9.80509 5.36287 16.27144 11.34793 0.00440 -0.00199 -0.01583 -41.27980 13.95726 34.64502 7.49227 -1.90927 -4.33693 35.92902 -81.37449 60.51188 -43.32703 50.34833 -101.19446 5.39464 9.08587 -0.26880 28.36383 -0.87007 2.29636 45.17085 -8.78736 66.30975 18.59821 36.10443 103.93054 -5.79720 8.74061 -0.38859 25.11665 -28.24861 13.95762 3.82383 20.89856 -11.89990 34.31392 -0.16434 0.20710 -52.89493 4.13827 -2.33787 -23.66574 15.68589 17.66278 7.67728 11.30206 -7.01584 6.83789 -0.15885 0.04364 -7.36353 -40.54562 -13.76162 
-28.50821 83.64571 -107.42886 2.27333 -3.57629 -9.27092 5.91539 16.09997 10.90769 0.00233 -0.00095 -0.01420 -40.57370 14.25108 35.65367 6.95461 -1.10061 -4.64831 38.23116 -82.20753 63.76813 -43.82975 51.09637 -100.99004 5.42350 9.23438 -1.87285 27.96194 -0.21180 1.71139 46.16377 -8.40937 66.83804 18.72832 36.34621 103.68597 -5.79332 9.31654 -1.04780 25.26711 -28.35831 14.09971 4.81033 19.76734 -15.22197 24.99530 -0.15949 0.13487 -46.49704 3.53798 2.24814 -22.94721 15.66806 19.03655 10.08672 10.00921 -10.81320 7.08595 -0.12198 0.02026 -8.65256 -40.23741 -11.08008 
-29.78886 83.93610 -108.52151 1.79901 -3.64919 -8.79617 6.55603 15.97997 10.34038 0.00076 -0.00015 -0.01199 -39.83883 14.69035 36.69263 6.30534 -0.32296 -4.75301 38.91795 -83.19092 65.13972 -44.26107 51.76694 -100.65508 5.38655 9.08232 -1.07791 27.58877 0.48690 1.35293 47.01178 -8.09278 67.04852 18.78101 36.55606 103.42733 -5.80162 9.30889 -1.03903 25.46614 -28.23327 14.18986 4.83823 20.21189 -16.34558 16.75877 -0.07336 -0.04497 -37.50134 2.78720 3.72045 -21.88448 14.68630 19.27262 12.36900 11.98491 -12.58522 4.19666 -0.04232 -0.02256 -7.42900 -42.38760 -9.32765 
-30.93145 84.35478 -109.45731 1.27377 -3.83634 -8.41675 7.21516 15.89047 9.71424 -0.00036 0.00075 -0.01046 -39.11027 15.28849 37.74076 5.59900 0.42447 -4.73140 38.22639 -84.20505 64.91512 -44.51469 52.30077 -100.38171 5.42726 9.52237 -2.00855 27.16601 1.18804 1.11875 47.74588 -7.77834 67.10530 18.75799 36.71466 103.13293 -5.53839 9.82221 -1.35993 25.83915 -28.05172 14.37786 4.34539 21.54556 -15.61527 9.13626 0.06008 -0.11891 -29.80289 5.95240 19.42535 -20.54963 13.10628 18.46842 13.83397 14.69438 -12.11919 6.36914 -0.15819 0.04650 -10.94102 -42.71497 -9.63600 
-31.92199 84.85912 -110.25577 0.73394 -4.09020 -8.16029 7.83795 15.80456 9.09456 -0.00109 0.00132 -0.00873 -38.43249 16.05448 38.76924 4.86857 1.10658 -4.56734 35.92863 -85.19694 62.90336 -44.64441 52.69604 -100.12631 5.47871 9.64813 -1.44347 26.60605 1.87361 1.03940 48.40582 -7.49336 67.03606 18.67517 36.81663 102.82848 -5.34553 9.83980 -1.23595 26.44055 -27.94652 14.75736 3.43898 23.48125 -13.46488 2.02256 0.16213 -0.12344 -19.87237 4.60806 9.53158 -19.05955 11.42515 16.73297 14.00087 16.68595 -10.42853 5.33279 -0.12886 0.02316 -10.13729 -41.63950 -9.65563 
-32.74459 85.40784 -110.94099 0.20474 -4.36868 -8.03757 8.39591 15.69831 8.52232 -0.00123 0.00150 -0.00723 -37.83260 16.93897 39.76441 4.16849 1.67876 -4.29680 31.95803 -86.05489 59.10703 -44.65605 52.96798 -99.99689 5.52409 10.13782 -2.03602 25.91310 2.46338 1.00704 48.98849 -7.15114 66.93565 18.59325 36.87300 102.50314 -5.06855 10.17176 -1.24502 27.28919 -27.96914 15.37355 2.01720 25.81975 -10.27500 -4.43150 0.21578 -0.09292 -11.63935 4.34785 9.24240 -18.03644 10.40746 15.21333 13.86818 17.55886 -8.38524 9.33609 -0.16938 0.00272 -13.96589 -40.14017 -9.43369 
-33.41283 85.95261 -111.51686 -0.29354 -4.60491 -8.02069 8.87896 15.52279 8.01098 -0.00125 0.00217 -0.00517 -37.32176 17.90837 40.70061 3.49682 2.18570 -3.89900 -27.16669 -90.00000 0.00000 -44.65530 53.15593 -99.87709 5.56980 10.28548 -1.60484 25.06955 3.04570 1.16643 49.49652 -6.98351 66.82450 18.57010 36.87487 102.13155 -4.85303 10.22056 -1.10523 28.19582 -28.02712 16.12178 1.37505 26.87535 -7.98328 -11.61447 0.21244 0.00687 -3.73968 4.48538 3.83242 -17.30972 9.83474 13.82974 13.84078 19.11573 -6.54133 7.33046 -0.01606 -0.01817 -11.46011 -39.92361 -8.28095 
-33.95706 86.44091 -111.98954 -0.74367 -4.78387 -8.06771 9.26645 15.27800 7.55039 -0.00208 0.00379 -0.00327 -36.89012 18.90622 41.55727 2.82559 2.65480 -3.42316 -27.07219 -90.00000 0.00000 -44.64943 53.26652 -99.75703 5.58326 10.73598 -1.87486 24.10970 3.62198 1.44488 49.92018 -6.96305 66.79630 18.62774 36.81993 101.69901 -4.61386 10.42610 -1.02283 28.94505 -27.98188 16.85941 1.23191 27.06744 -6.44501 -19.01644 0.15891 0.06653 3.04318 5.46998 1.82058 -16.75920 9.50806 12.52538 13.80741 20.69332 -4.81396 8.74032 -0.03321 0.00614 1.09813 -29.30373 9.40961 
-34.42479 86.81882 -112.36046 -1.13809 -4.89643 -8.14012 9.54360 14.94963 7.13217 -0.00314 0.00401 -0.00147 -36.52733 19.92316 42.32624 2.14957 3.01074 -2.86747 -26.82003 -90.00000 0.00000 -44.67731 53.33667 -99.60125 5.62171 10.76660 -1.56642 23.20675 4.12217 1.88315 50.10164 -7.11635 66.77140 18.77550 36.69487 101.19563 -4.44734 10.52432 -0.89417 29.41319 -27.74572 17.47635 1.35463 26.66353 -5.50369 -26.31569 0.09816 0.08362 9.67847 6.93647 -0.85962 -16.31273 9.27436 11.24755 13.74997 22.14499 -3.18597 8.89899 -0.02856 -0.00065 -5.10892 -35.48778 2.47971 
-34.86289 87.11787 -112.64798 -1.47313 -4.93526 -8.21864 9.70414 14.54719 6.75537 -0.00357 0.00516 -0.00010 -36.21491 20.90313 42.99268 1.59028 3.35961 -2.28901 -26.54722 -90.00000 0.00000 -44.79528 53.36559 -99.35781 5.65134 10.96945 -1.56949 22.02949 4.60206 2.32929 50.45429 -7.33141 66.92652 19.02950 36.50996 100.59654 -4.34495 10.51582 -0.77852 29.56776 -27.28783 17.93261 1.61172 25.84444 -5.01170 -33.31801 0.05003 0.07385 17.01807 8.75470 -2.06482 -15.97806 9.01764 9.97158 13.50534 23.49477 -1.54291 10.16129 -0.02960 0.00814 3.53313 -20.96646 22.15567 
-35.27481 87.32838 -112.85272 -1.75121 -4.90645 -8.29074 9.74325 14.08272 6.41106 -0.00428 0.00562 0.00018 -35.95474 21.81353 43.57031 1.11306 3.67736 -1.77195 -26.20604 -90.00000 0.00000 -44.96903 53.34872 -99.02984 5.61228 10.94105 -1.33999 21.04888 5.04714 2.79747 50.56858 -7.65013 67.23010 19.36754 36.27759 99.93002 -4.30981 10.68150 -0.57027 29.52995 -26.61025 18.28873 0.71734 24.82962 -4.28602 -30.22709 -0.00014 -0.00909 14.24697 9.12181 -2.91774 -15.77160 8.67802 8.69252 13.16267 24.79664 0.14107 11.39488 -0.02733 0.00900 -1.16716 -27.90960 14.33972 
-35.66799 87.50694 -112.98786 -1.97057 -4.81961 -8.35889 9.65751 13.57746 6.10051 -0.00464 0.00611 0.00035 -35.72383 22.61747 44.06250 0.73163 3.98188 -1.31314 -25.84375 -90.00000 0.00000 -45.23328 53.31156 -98.58768 5.61361 10.89591 -1.27692 20.21522 5.46472 3.24111 50.57990 -8.01379 67.71289 19.76106 36.00166 99.20755 -4.41322 10.63573 -0.39411 29.31917 -25.76427 18.55107 0.35719 23.56033 -4.00548 -27.25111 -0.00112 -0.00836 12.20385 9.56548 -3.21071 -15.69016 8.21928 7.42051 12.84600 26.07053 1.88239 12.82054 -0.02566 0.01165 5.23771 -7.35207 23.05638 
-36.04943 87.68550 -113.07513 -2.13587 -4.69197 -8.42775 9.45400 13.05225 5.82472 -0.00462 0.00594 0.00037 -35.50445 23.29669 44.47537 0.44315 4.24472 -0.89200 -25.46958 -90.00000 0.00000 -45.59125 53.25829 -98.01923 5.54546 10.79873 -1.08293 19.58349 5.84291 3.69648 50.47828 -8.42432 68.30730 20.15965 35.69565 98.47598 -4.51788 10.73273 -0.17823 28.93456 -24.81690 18.73231 0.37765 22.13307 -4.04825 -24.30755 0.00368 -0.00494 9.82078 9.88616 -3.53240 -15.73863 7.63212 6.17090 12.54307 27.35601 3.69862 14.11571 -0.02582 0.01101 1.37545 -13.21732 17.60400 
